<?xml version="1.0" encoding="UTF-8"?>
<svg id="Layer_2" data-name="Layer 2" xmlns="http://www.w3.org/2000/svg" viewBox="0 0 25 24">
  <defs>
    <style>
      .cls-1 {
        fill: #0274e6;
      }
    </style>
  </defs>
  <g id="Layer_1-2" data-name="Layer 1">
    <g id="Archives_widget">
      <path class="cls-1" d="M14,21H3V6H21v7h1V6h2V0H0V6H2V22H14v-1ZM1,1H23V5H1V1Z"/>
      <path class="cls-1" d="M17.5,8H6.5v3h11v-3Zm-1,2H7.5v-1h9v1Z"/>
      <path class="cls-1" d="M23,14h-6c-1.1,0-2,.9-2,2v6c0,1.1,.9,2,2,2h6c1.1,0,2-.9,2-2v-6c0-1.1-.9-2-2-2Zm1,8c0,.55-.45,1-1,1h-6c-.55,0-1-.45-1-1v-6c0-.55,.45-1,1-1h6c.55,0,1,.45,1,1v6Z"/>
      <path class="cls-1" d="M21.93,18.5c-.05-.18-.12-.35-.21-.51l.76-.76-.71-.71-.76,.76c-.16-.09-.33-.17-.51-.21v-1.07h-1v1.07c-.18,.05-.35,.12-.51,.21l-.76-.76-.71,.71,.76,.76c-.09,.16-.17,.33-.21,.51h-1.07v1h1.07c.05,.18,.12,.35,.21,.51l-.76,.76,.71,.71,.76-.76c.16,.09,.33,.17,.51,.21v1.07h1v-1.07c.18-.05,.35-.12,.51-.21l.76,.76,.71-.71-.76-.76c.09-.16,.17-.33,.21-.51h1.07v-1h-1.07Zm-1.93,1.5c-.55,0-1-.45-1-1s.45-1,1-1,1,.45,1,1-.45,1-1,1Z"/>
    </g>
  </g>
</svg>