<svg xmlns="http://www.w3.org/2000/svg" viewBox="0 0 24 12"><g id="author_box"><path fill="#0274e6" d="M23,1V11H1V1H23m1-1H0V12H24V0Z"/><rect fill="#0274e6" x="12.5" y="3" width="9" height="1"/><rect fill="#0274e6" x="12.5" y="5.5" width="5" height="1"/><rect fill="#0274e6" x="12.5" y="8" width="7" height="1"/><path fill="#0274e6" d="M6.5,1.5a4.5,4.5,0,0,0-1.14,8.84,4.75,4.75,0,0,0,1.14.16,4.75,4.75,0,0,0,1.14-.16A4.49,4.49,0,0,0,6.5,1.5Zm0,8A3.46,3.46,0,0,1,4.78,9,1.72,1.72,0,0,1,8.22,9,3.46,3.46,0,0,1,6.5,9.5Zm0-3.39a.95.95,0,1,1,.94-.94A.94.94,0,0,1,6.5,6.11ZM9.11,8.3A2.73,2.73,0,0,0,7.75,6.65a1.94,1.94,0,1,0-2.5,0A2.73,2.73,0,0,0,3.89,8.3,3.42,3.42,0,0,1,3,6a3.5,3.5,0,0,1,7,0A3.42,3.42,0,0,1,9.11,8.3Z"/></g></svg>