<?xml version="1.0" encoding="UTF-8"?>
<svg id="Layer_2" data-name="Layer 2" xmlns="http://www.w3.org/2000/svg" viewBox="0 0 24 25">
  <defs>
    <style>
      .cls-1 {
        fill: #0274e6;
      }
    </style>
  </defs>
  <g id="Layer_1-2" data-name="Layer 1">
    <g id="Calendar_widget">
      <path class="cls-1" d="M11.5,21v-4.5h1.5v-1h-1.5v-4h4v2.5h1v-2.5h4.5v2.5h1V2h-3.5V0h-1V2H4.5V0h-1V2H0V22H13v-1h-1.5Zm-1-5.5H6.5v-4h4v4Zm0-9v4H6.5V6.5h4Zm-5,4H1V6.5H5.5v4Zm-4.5,1H5.5v4H1v-4Zm10.5-1V6.5h4v4h-4Zm9.5,0h-4.5V6.5h4.5v4ZM3.5,3v1h1v-1h13v1h1v-1h2.5v2.5H1V3H3.5ZM1,21v-4.5H5.5v4.5H1Zm5.5,0v-4.5h4v4.5H6.5Z"/>
      <path class="cls-1" d="M22,15h-6c-1.1,0-2,.9-2,2v6c0,1.1,.9,2,2,2h6c1.1,0,2-.9,2-2v-6c0-1.1-.9-2-2-2Zm1,8c0,.55-.45,1-1,1h-6c-.55,0-1-.45-1-1v-6c0-.55,.45-1,1-1h6c.55,0,1,.45,1,1v6Z"/>
      <path class="cls-1" d="M20.93,19.5c-.05-.18-.12-.35-.21-.51l.76-.76-.71-.71-.76,.76c-.16-.09-.33-.17-.51-.21v-1.07h-1v1.07c-.18,.05-.35,.12-.51,.21l-.76-.76-.71,.71,.76,.76c-.09,.16-.17,.33-.21,.51h-1.07v1h1.07c.05,.18,.12,.35,.21,.51l-.76,.76,.71,.71,.76-.76c.16,.09,.33,.17,.51,.21v1.07h1v-1.07c.18-.05,.35-.12,.51-.21l.76,.76,.71-.71-.76-.76c.09-.16,.17-.33,.21-.51h1.07v-1h-1.07Zm-2.93,.5c0-.55,.45-1,1-1s1,.45,1,1-.45,1-1,1-1-.45-1-1Z"/>
    </g>
  </g>
</svg>