<?xml version="1.0" encoding="UTF-8"?>
<svg id="Layer_2" data-name="Layer 2" xmlns="http://www.w3.org/2000/svg" viewBox="0 0 25 25">
  <defs>
    <style>
      .cls-1 {
        fill: #0274e6;
      }
    </style>
  </defs>
  <g id="Layer_1-2" data-name="Layer 1">
    <g id="Categories_widget">
      <path class="cls-1" d="M9.5,0H2C.9,0,0,.9,0,2v7.5c0,1.1,.9,2,2,2h7.5c1.1,0,2-.9,2-2V2c0-1.1-.9-2-2-2Zm1,9.5c0,.55-.45,1-1,1H2c-.55,0-1-.45-1-1V2c0-.55,.45-1,1-1h7.5c.55,0,1,.45,1,1v7.5Z"/>
      <path class="cls-1" d="M14.5,11.5h7.5c1.1,0,2-.9,2-2V2c0-1.1-.9-2-2-2h-7.5c-1.1,0-2,.9-2,2v7.5c0,1.1,.9,2,2,2Zm-1-9.5c0-.55,.45-1,1-1h7.5c.55,0,1,.45,1,1v7.5c0,.55-.45,1-1,1h-7.5c-.55,0-1-.45-1-1V2Z"/>
      <path class="cls-1" d="M9.5,12.5H2c-1.1,0-2,.9-2,2v7.5c0,1.1,.9,2,2,2h7.5c1.1,0,2-.9,2-2v-7.5c0-1.1-.9-2-2-2Zm1,9.5c0,.55-.45,1-1,1H2c-.55,0-1-.45-1-1v-7.5c0-.55,.45-1,1-1h7.5c.55,0,1,.45,1,1v7.5Z"/>
      <path class="cls-1" d="M14,22.85c-.29-.17-.5-.48-.5-.85v-7.5c0-.55,.45-1,1-1h7.5c.37,0,.67,.21,.85,.5h1.08c-.22-.86-1-1.5-1.93-1.5h-7.5c-1.1,0-2,.9-2,2v7.5c0,.93,.64,1.71,1.5,1.93v-1.08Z"/>
      <path class="cls-1" d="M24.12,15.34c-.32-.22-.7-.34-1.12-.34h-6c-.41,0-.8,.13-1.12,.34-.21,.14-.4,.33-.54,.54-.22,.32-.34,.7-.34,1.12v6c0,1.1,.9,2,2,2h6c1.1,0,2-.9,2-2v-6c0-.41-.13-.8-.34-1.12-.14-.21-.33-.4-.54-.54Zm-.12,6.66v1c0,.55-.45,1-1,1h-6c-.55,0-1-.45-1-1v-6c0-.55,.45-1,1-1h6c.55,0,1,.45,1,1v5Z"/>
      <path class="cls-1" d="M21.01,21.72l.76,.76,.71-.71-.76-.76c.09-.16,.17-.33,.21-.51h1.07v-1h-1.07c-.05-.18-.12-.35-.21-.51l.76-.76-.71-.71-.76,.76c-.16-.09-.33-.17-.51-.21v-1.07h-1v1.07c-.18,.05-.35,.12-.51,.21l-.76-.76-.71,.71,.76,.76c-.09,.16-.17,.33-.21,.51h-1.07v1h1.07c.05,.18,.12,.35,.21,.51l-.76,.76,.71,.71,.76-.76c.16,.09,.33,.17,.51,.21v1.07h1v-1.07c.18-.05,.35-.12,.51-.21Zm-1.01-.72c-.55,0-1-.45-1-1s.45-1,1-1,1,.45,1,1-.45,1-1,1Z"/>
    </g>
  </g>
</svg>