<svg xmlns="http://www.w3.org/2000/svg" viewBox="0 0 28 20"><g id="coder"><path fill="#0274e6" d="M26,1a1,1,0,0,1,1,1V18a1,1,0,0,1-1,1H2a1,1,0,0,1-1-1V2A1,1,0,0,1,2,1H26m0-1H2A2,2,0,0,0,0,2V18a2,2,0,0,0,2,2H26a2,2,0,0,0,2-2V2a2,2,0,0,0-2-2Z"/><path fill="#0274e6" d="M9.85,6.82a.5.5,0,0,1,0,.71L7.38,10l2.47,2.47a.5.5,0,0,1-.71.71L6.32,10.35a.48.48,0,0,1,0-.7L9.14,6.82A.5.5,0,0,1,9.85,6.82Zm9,6.36,2.82-2.83a.48.48,0,0,0,0-.7L18.86,6.82a.5.5,0,0,0-.71.71L20.62,10l-2.47,2.47a.5.5,0,0,0,.71.71Z"/><rect fill="#0274e6" x="14.22" y="2.61" width="1" height="14" rx="0.5" transform="translate(4.17 -4.45) rotate(19.98)"/></g></svg>