<?xml version="1.0" encoding="UTF-8"?>
<svg id="Layer_2" data-name="Layer 2" xmlns="http://www.w3.org/2000/svg" viewBox="0 0 25 25">
  <defs>
    <style>
      .cls-1 {
        fill: #0274e6;
      }
    </style>
  </defs>
  <g id="Layer_1-2" data-name="Layer 1">
    <g id="Comments_widget">
      <path class="cls-1" d="M14,19.5h-3.05l-.25,.17-2.62,1.75-1.07,.71v-2.63h-2v-5.5l2.25-1.5h12.75v-3.5h3v5h1v-6h-4V0H0V12.5H2v3.5c.67-.44,1.33-.89,2-1.33v5.83h2v3.5c1.75-1.17,3.5-2.33,5.25-3.5h2.75v-1ZM2,11.5H1V1H19V11.5H6.95l-.25,.17-2.62,1.75-1.07,.71v-2.63h-1Z"/>
      <path class="cls-1" d="M4,6c1.1,0,2-.9,2-2s-.9-2-2-2-2,.9-2,2,.9,2,2,2Zm0-3c.55,0,1,.45,1,1s-.45,1-1,1-1-.45-1-1,.45-1,1-1Z"/>
      <path class="cls-1" d="M16.78,5.5h1.22V2.5H7v3h9.78ZM8,3.5h9v1H8v-1Z"/>
      <path class="cls-1" d="M16.93,10h1.07v-3H2v3h14.93ZM3,8h14v1H3v-1Z"/>
      <polygon class="cls-1" points="11 17 11 16 14 16 14 15 10.6 15 10 15 10 16 10 17 10 18 14 18 14 17 11 17"/>
      <path class="cls-1" d="M25,17c0-1.1-.9-2-2-2h-6c-1.1,0-2,.9-2,2v6c0,1.1,.9,2,2,2h6c1.1,0,2-.9,2-2v-6Zm-1,3.5v2.5c0,.55-.45,1-1,1h-6c-.55,0-1-.45-1-1v-6c0-.55,.45-1,1-1h6c.55,0,1,.45,1,1v3.5Z"/>
      <path class="cls-1" d="M23,19.5h-1.07c-.05-.18-.12-.35-.21-.51l.76-.76-.71-.71-.76,.76c-.16-.09-.33-.17-.51-.21v-1.07h-1v1.07c-.18,.05-.35,.12-.51,.21l-.76-.76-.71,.71,.76,.76c-.09,.16-.17,.33-.21,.51h-1.07v1h1.07c.05,.18,.12,.35,.21,.51l-.76,.76,.71,.71,.76-.76c.16,.09,.33,.17,.51,.21v1.07h1v-1.07c.18-.05,.35-.12,.51-.21l.76,.76,.71-.71-.76-.76c.09-.16,.17-.33,.21-.51h1.07v-1Zm-3,1.5c-.55,0-1-.45-1-1s.45-1,1-1,1,.45,1,1-.45,1-1,1Z"/>
      <polygon class="cls-1" points="8 15 7 15 7 16 6 16 6 17 7 17 7 18 8 18 8 17 9 17 9 16 8 16 8 15"/>
    </g>
  </g>
</svg>