<svg xmlns="http://www.w3.org/2000/svg" viewBox="0 0 18.5 23">
    <path fill="#0274e6" d="M9.5,23a9.5,9.5,0,0,0,9-9h-1a8.51,8.51,0,0,1-8,8A8.49,8.49,0,0,1,1,13.5,8.68,8.68,0,0,1,9.5,5c4.32,0,7,3.64,7.2,4H14.5v1h4V6h-1V8.39A10.86,10.86,0,0,0,10.75,4.1V3h3.5V0h-10V3h3.5V4.19A9.7,9.7,0,0,0,0,13.5,9.5,9.5,0,0,0,9.5,23ZM9.75,4h-1V3h1ZM5.25,2V1h8V2h-8Z"/><rect fill="#0274e6" x="2" y="13" width="3.5" height="1"/><rect fill="#0274e6" x="13" y="13" width="3.5" height="1"/><rect fill="#0274e6" x="8.75" y="17.25" width="1" height="3.5"/><rect fill="#0274e6" x="8.75" y="5.75" width="1" height="3.5"/><path fill="#0274e6" d="M13.75,10.6,13,10,9.78,12.8V11h-1v3h1Z"/></svg>