<svg xmlns="http://www.w3.org/2000/svg" viewBox="0 0 25 24.75"><g id="dscount_coupons"><path fill="#0274e6" d="M10.5,9.75a1,1,0,1,1-.71.29,1,1,0,0,1,.71-.29m0-1a2,2,0,1,0,1.41.59,2,2,0,0,0-1.41-.59Z"/><path fill="#0274e6" d="M10,16.75a1,1,0,1,1-.71,1.71,1,1,0,0,1,0-1.42,1,1,0,0,1,.71-.29m0-1a2,2,0,1,0,1.41.59A2,2,0,0,0,10,15.75Z"/><polygon fill="#0274e6" points="5.34 15.5 15.75 14.2 15.66 13 5.25 14.3 5.34 15.5"/><path fill="#0274e6" d="M17.4,3.27l-.35,1,3.17.28c.25,2.66.49,5.31.74,8q-5.41,5.41-10.84,10.84L1.41,14.63,12.25,3.79,14.18,4l.35-1-2.65-.25L0,14.63,10.12,24.75,22,12.87l-.87-9.25Z"/><path fill="#0274e6" d="M20,0a5.1,5.1,0,0,0-4.9,4.15,4.63,4.63,0,0,0,.3,2.5A1.72,1.72,0,0,0,16.67,9.5a1.74,1.74,0,0,0,1.79-1.59,1.82,1.82,0,0,0-1.6-1.83,1.55,1.55,0,0,0-.56,0,3.75,3.75,0,0,1-.16-1.92A4,4,0,0,1,24,4.82,3.8,3.8,0,0,1,22.31,8L22.42,9A4.77,4.77,0,0,0,25,4.82,5,5,0,0,0,20,0Z"/></g></svg>