<svg xmlns="http://www.w3.org/2000/svg" viewBox="0 0 24 26.38"><path fill="#0274e6" d="M10,4.43V9.52a5.27,5.27,0,0,0-2.48,1.4,5.33,5.33,0,0,0-1.37,2.45H1.05A10.11,10.11,0,0,1,4,7.21a10.14,10.14,0,0,1,6-2.78m.92-1.06A11.19,11.19,0,0,0,3.26,6.5,11.15,11.15,0,0,0,0,14.37H7a4.33,4.33,0,0,1,1.23-2.75A4.28,4.28,0,0,1,11,10.38v-7Z"/><path fill="#0274e6" d="M17,14.38h7a12.77,12.77,0,0,0-3-8l-5,5a3.87,3.87,0,0,1,.7,1.08A4.09,4.09,0,0,1,17,14.38Z"/><path fill="#0274e6" d="M13,3.44a11,11,0,0,1,2,.4,11.47,11.47,0,0,1,3.44,1.64L14.87,9.09A5.85,5.85,0,0,0,14,8.68,5.29,5.29,0,0,0,13,8.44v-5M12,2.38v7h.11a4.67,4.67,0,0,1,1.52.26,4.57,4.57,0,0,1,1.37.75l5-5a12.83,12.83,0,0,0-4.69-2.5A12.43,12.43,0,0,0,12,2.38Z"/><path fill="#0274e6" d="M22,16.38a10.34,10.34,0,0,1-10.45,9,10.34,10.34,0,0,1-10.45-9H6.1a5.46,5.46,0,0,0,5.4,4.3,5.46,5.46,0,0,0,5.4-4.3H22m1.05-1H16a4.42,4.42,0,0,1-4.5,4.3A4.42,4.42,0,0,1,7,15.38H0a11.31,11.31,0,0,0,11.5,11,11.31,11.31,0,0,0,11.5-11Z"/></svg>