<svg xmlns="http://www.w3.org/2000/svg" xmlns:xlink="http://www.w3.org/1999/xlink" viewBox="0 0 24 23.75"><path fill="#0274e6" d="M6,19.75a2,2,0,1,1-2-2A2,2,0,0,1,6,19.75Zm6-7a2,2,0,1,0,2,2A2,2,0,0,0,12,12.75ZM19.5,1a1.25,1.25,0,1,0,1.25,1.25A1.25,1.25,0,0,0,19.5,1m0-1a2.25,2.25,0,1,1-2.25,2.25A2.25,2.25,0,0,1,19.5,0Zm0,16.75a2,2,0,1,0,2,2A2,2,0,0,0,19.5,16.75ZM12,6a1.25,1.25,0,1,0,1.25,1.25A1.25,1.25,0,0,0,12,6m0-1A2.25,2.25,0,1,1,9.75,7.25,2.25,2.25,0,0,1,12,5ZM4,12a1.25,1.25,0,1,0,1.25,1.25A1.25,1.25,0,0,0,4,12m0-1a2.25,2.25,0,1,1-2.25,2.25A2.25,2.25,0,0,1,4,11ZM0,23.75H24v-1H0Z"/></svg>