<svg xmlns="http://www.w3.org/2000/svg" viewBox="0 0 20 24"><g id="float_navigation"><path fill="#0274e6" d="M16,10v1H4V10H16m1-1H3v3H17V9Z"/><path fill="#0274e6" d="M16,14.5v1H4v-1H16m1-1H3v3H17v-3Z"/><path fill="#0274e6" d="M16,19v1H4V19H16m1-1H3v3H17V18Z"/><path fill="#0274e6" d="M7.57,5,7,7l4,1c.67-2.35,1.33-4.71,2-7.06L9,0,7.86,4h0L7.57,5Zm3.2-3.56,1,.23L11.09,4h0L11,4.2l-.23.8h0L10.3,6.79h0L8.25,6.28l.58-2L9.7,1.19h0Z"/><polygon fill="#0274e6" points="13.17 4 12.96 4.71 12.89 4.95 19 4.95 19 23.05 1 23.05 1 4.95 6.53 4.95 6.82 4 0 4 0 24 20 24 20 4 13.17 4"/></g></svg>