<svg xmlns="http://www.w3.org/2000/svg" viewBox="0 0 24 13.01"><g id="gauge"><path fill="#0274e6" d="M10,2.06V6.52A4.84,4.84,0,0,0,6.52,10H2.06A9,9,0,0,1,4.67,4.55,9.06,9.06,0,0,1,10,2.06M10.93,1A10.1,10.1,0,0,0,4,3.84,10.17,10.17,0,0,0,1,11H7.36A3.88,3.88,0,0,1,11,7.36V1Z"/><path fill="#0274e6" d="M20.27,5.52A10.08,10.08,0,0,1,21.6,8.38,11.07,11.07,0,0,1,21.93,10h-4.1a4.36,4.36,0,0,0-.3-1.07c-.07-.15-.14-.3-.22-.45l1.58-1.59,1.38-1.37M20.38,4,16,8.38a3.18,3.18,0,0,1,.61.95A3.62,3.62,0,0,1,16.88,11H23a11.27,11.27,0,0,0-2.62-7Z"/><path fill="#0274e6" d="M15.74,7l4-4.31A11.06,11.06,0,0,0,16.06.57,11.22,11.22,0,0,0,12.25,0V6A4.74,4.74,0,0,1,14,6.15,4.85,4.85,0,0,1,15.74,7Z"/><rect fill="#0274e6" y="12.01" width="24" height="1"/></g></svg>