<svg xmlns="http://www.w3.org/2000/svg" viewBox="0 0 28 24"><g id="glider"><path fill="#0274e6" d="M26.5,2V3a1,1,0,0,1,1,1V20a1,1,0,0,1-1,1v1a2,2,0,0,0,2-2V4a2,2,0,0,0-2-2ZM2.5,2a2,2,0,0,0-2,2V20a2,2,0,0,0,2,2V21a1,1,0,0,1-1-1V4a1,1,0,0,1,1-1V2Z" transform="translate(-0.5)"/><path fill="#0274e6" d="M23.5,1a1,1,0,0,1,1,1V22a1,1,0,0,1-1,1H5.5a1,1,0,0,1-1-1V2a1,1,0,0,1,1-1h18m0-1H5.5a2,2,0,0,0-2,2V22a2,2,0,0,0,2,2h18a2,2,0,0,0,2-2V2a2,2,0,0,0-2-2Z" transform="translate(-0.5)"/><path fill="#0274e6" d="M10.35,8.82a.5.5,0,0,1,0,.71L7.88,12l2.47,2.47a.5.5,0,0,1-.71.71L6.82,12.35a.48.48,0,0,1,0-.7L9.64,8.82A.5.5,0,0,1,10.35,8.82Z" transform="translate(-0.5)"/><path fill="#0274e6" d="M18.65,15.18a.5.5,0,0,1,0-.71L21.12,12,18.65,9.53a.5.5,0,0,1,.71-.71l2.82,2.83a.48.48,0,0,1,0,.7l-2.82,2.83A.5.5,0,0,1,18.65,15.18Z" transform="translate(-0.5)"/></g></svg>