<svg xmlns="http://www.w3.org/2000/svg" viewBox="0 0 18 23.25"><path fill="#0274e6" d="M9,3.5a2.75,2.75,0,1,0,2.75,2.75A2.75,2.75,0,0,0,9,3.5ZM9,8a1.75,1.75,0,1,1,1.75-1.75A1.76,1.76,0,0,1,9,8Z"/><path fill="#0274e6" d="M9,23.25l3-3h6v-1H11.5L9,21.75l-2.5-2.5H0v1H6Z"/><path fill="#0274e6" d="M9,0A5.76,5.76,0,0,0,3.26,5.78c0,.37,0,.65,0,1.16a13.76,13.76,0,0,0,1.56,5.39A26.33,26.33,0,0,0,9,18.5a25.17,25.17,0,0,0,4.18-6.17,14.07,14.07,0,0,0,1.57-5.74c0-.37,0-.56,0-.81A5.76,5.76,0,0,0,9,0Zm4.74,6.09c0,.13,0,.27,0,.48a14.3,14.3,0,0,1-1.47,5.34A23.82,23.82,0,0,1,9,17,25,25,0,0,1,5.72,11.9a12.55,12.55,0,0,1-1.46-5,5.85,5.85,0,0,1,0-.73V5.78a4.74,4.74,0,1,1,9.48,0Z"/></svg>