<svg xmlns="http://www.w3.org/2000/svg" viewBox="0 0 24 22"><g id="holes"><rect fill="#0274e6" y="21" width="24" height="1"/><path fill="#0274e6" d="M20.58,0a1.93,1.93,0,0,0-1.92,1.93,2,2,0,0,0,.44,1.23L17.5,5.38c.25.19.5.4.74.62l1.64-2.27a1.78,1.78,0,0,0,.7.14,1.94,1.94,0,0,0,0-3.87Zm0,2.9a1,1,0,1,1,1-1A1,1,0,0,1,20.58,2.9Z"/><path fill="#0274e6" d="M16,9.13q-.35-.33-.72-.63l-1.71,2.32a2,2,0,0,0-.64-.12,1.9,1.9,0,1,0,1.92,1.9,1.85,1.85,0,0,0-.48-1.25ZM13.89,12.6a1,1,0,1,1-1-.95A1,1,0,0,1,13.89,12.6Z"/><path fill="#0274e6" d="M20.06,12.76a12.07,12.07,0,0,0-5-7.65,9,9,0,0,0-4.67-1.59,2,2,0,0,0-3.86.73,2,2,0,0,0,.07.49A8.87,8.87,0,0,0,4.18,7.53,12,12,0,0,0,3.07,16a2,2,0,1,0,1-.24A11,11,0,0,1,5.06,8a7.89,7.89,0,0,1,2-2.39,2,2,0,0,0,3.42-1.11,8.12,8.12,0,0,1,4,1.42A11.07,11.07,0,0,1,19.09,13,2,2,0,0,0,18,14.75a2,2,0,1,0,2.06-2ZM5,17.75a1,1,0,1,1-1-1A1,1,0,0,1,5,17.75ZM8.5,5.25a1,1,0,1,1,1-1A1,1,0,0,1,8.5,5.25ZM20,15.75a1,1,0,1,1,1-1A1,1,0,0,1,20,15.75Z"/></g></svg>