<svg xmlns="http://www.w3.org/2000/svg" viewBox="0 0 20 22"><g id="mega_menu"><rect fill="#0274e6" x="6.5" y="4" width="7" height="1"/><rect fill="#0274e6" x="6.5" y="6.5" width="7" height="1"/><rect fill="#0274e6" x="6.5" y="9" width="7" height="1"/><path fill="#0274e6" d="M10,18a1.53,1.53,0,0,1,.3,0,1.5,1.5,0,0,1,0,2.94,1.51,1.51,0,0,1-.6,0A1.5,1.5,0,0,1,9.7,18a1.53,1.53,0,0,1,.3,0m0-1a2.73,2.73,0,0,0-.5.05,2.5,2.5,0,0,0,0,4.9,2.52,2.52,0,0,0,1,0,2.5,2.5,0,0,0,0-4.9A2.73,2.73,0,0,0,10,17Z"/><path fill="#0274e6" d="M17.5,15a1.5,1.5,0,0,1,.3,3,1.51,1.51,0,0,1-.6,0,1.5,1.5,0,0,1,.3-3m0-1A2.5,2.5,0,0,0,17,19a2.52,2.52,0,0,0,1,0A2.5,2.5,0,0,0,17.5,14Z"/><path fill="#0274e6" d="M17,7A7,7,0,1,0,5.26,12.14l-1,1.36a3.37,3.37,0,0,1,.78.63l1-1.36A6.91,6.91,0,0,0,9.5,14v2A4,4,0,0,1,10,16a4,4,0,0,1,.5.05V14A6.93,6.93,0,0,0,14,12.77h0l1,1.36a3.37,3.37,0,0,1,.78-.63l-1-1.36A7,7,0,0,0,17,7ZM5.27,12.15h0ZM10,13a6,6,0,1,1,6-6A6,6,0,0,1,10,13Z"/><path fill="#0274e6" d="M2.5,15a1.5,1.5,0,0,1,.3,3,1.51,1.51,0,0,1-.6,0,1.5,1.5,0,0,1,.3-3m0-1A2.5,2.5,0,0,0,2,19a2.73,2.73,0,0,0,.5.05A2.73,2.73,0,0,0,3,19,2.5,2.5,0,0,0,2.5,14Z"/></g></svg>