<svg xmlns="http://www.w3.org/2000/svg" viewBox="0 0 22.5 22.5"><g id="image_box"><path fill="#0274e6" d="M21.5,1V21.5H1V1H21.5m1-1H0V22.5H22.5V0Z"/><path fill="#0274e6" d="M7.25,7.5A2.25,2.25,0,1,1,9.5,5.25,2.25,2.25,0,0,1,7.25,7.5Zm0-3.5A1.25,1.25,0,1,0,8.5,5.25,1.25,1.25,0,0,0,7.25,4Z"/><path fill="#0274e6" d="M7.85,11.64l5.25,4.9.29.27H16l.24.4,1.22,2H3.25v-3L5.49,14l2.36-2.35m0-1.39L2.25,15.81v4.44h17L16.6,15.81H13.79l-6-5.56Z"/><path fill="#0274e6" d="M17.26,14.66l3,4.59V13.3l-5-6.05-4,4.5,3,2.91Z"/></g></svg>