<svg xmlns="http://www.w3.org/2000/svg" viewBox="0 0 28 28" width="28" height="28">
    <polygon fill="#0274e6" points="26.5 26.78 19.17 26.78 17.67 26.78 10.33 26.78 8.83 26.78 1.5 26.78 0 26.78 0 28 1.5 28 8.83 28 10.33 28 17.67 28 19.17 28 26.5 28 28 28 28 26.78 26.5 26.78"/>
    <path fill="#0274e6" d="M24.79,21.91a1.41,1.41,0,0,0-1,.39,1.49,1.49,0,0,0-.47.88,1.13,1.13,0,0,0,0,.25,1.46,1.46,0,1,0,1.46-1.52Z"/>
    <path fill="#0274e6" d="M19.11,18.11a.74.74,0,0,0,.07-.21,1,1,0,0,0,0-.25,1.46,1.46,0,1,0-2.91,0,1.63,1.63,0,0,0,.09.49l-5,4.21a1.36,1.36,0,0,0-.57-.13,1.52,1.52,0,1,0,1.45,1.52,1.63,1.63,0,0,0-.09-.49l5-4.21a1.31,1.31,0,0,0,1.16,0l4.3,3.37.69-1Z"/>
    <path fill="#0274e6" d="M24.5,3.65a1.79,1.79,0,0,0,1.75-1.82,1.75,1.75,0,1,0-3.5,0A1.79,1.79,0,0,0,24.5,3.65Zm0-2.43a.59.59,0,0,1,.58.61.58.58,0,1,1-1.16,0A.6.6,0,0,1,24.5,1.22Z"/>
    <path fill="#0274e6" d="M23.92,4.26l-1-.61-2.69,4.9-.31,0A1.73,1.73,0,0,0,18.68,9L12.26,5.7a1.66,1.66,0,0,0,0-.22,1.88,1.88,0,0,0-1.76-1.83h0A1.87,1.87,0,0,0,8.78,5.48a1.84,1.84,0,0,0,.37,1.1s0,0,0,0L6.27,11A1.42,1.42,0,0,0,5.85,11a1.8,1.8,0,0,0-1.76,1.83,1.86,1.86,0,0,0,.79,1.51L3.34,20.71h.17a1.83,1.83,0,0,0,0,3.65,1.8,1.8,0,0,0,1.75-1.83A1.84,1.84,0,0,0,4.47,21L6,14.59a1.79,1.79,0,0,0,1.58-1.8,1.84,1.84,0,0,0-.35-1.09L10.1,7.24h0a1.54,1.54,0,0,0,.43.06,1.68,1.68,0,0,0,1.21-.51l6.42,3.34a1.5,1.5,0,0,0,0,.22,1.76,1.76,0,1,0,3.51,0,1.83,1.83,0,0,0-.43-1.19ZM3.51,23.13a.61.61,0,0,1-.59-.61.59.59,0,1,1,.59.61Zm2.33-9.74a.6.6,0,0,1-.58-.61.61.61,0,0,1,.59-.61.61.61,0,0,1,0,1.22Zm1.91-3.14Zm2.78-4.16a.61.61,0,1,1,.59-.61A.61.61,0,0,1,10.53,6.09Zm9.86,4.55a.56.56,0,0,1-.49.32.47.47,0,0,1-.26-.08.61.61,0,0,1-.33-.53.62.62,0,0,1,.09-.3.57.57,0,0,1,.5-.31.52.52,0,0,1,.25.07.59.59,0,0,1,.33.54A.58.58,0,0,1,20.39,10.64Z"/>
</svg>