<svg xmlns="http://www.w3.org/2000/svg" viewBox="0 0 22 21"><path fill="#0274e6" d="M16,20H1V1H16V3.59l.29-.3.71-.7V0H0V21H17V15.41l-1,1Z"/><rect fill="#0274e6" x="3" y="3.5" width="11" height="1"/><polygon fill="#0274e6" points="13 6.5 3 6.5 3 7.5 12.01 7.5 13 6.5"/><polygon fill="#0274e6" points="10 9.5 3 9.5 3 10.5 9.01 10.5 10 9.5"/><polygon fill="#0274e6" points="6.22 13.29 7 12.5 3 12.5 3 13.5 6.02 13.5 6.22 13.29"/><rect fill="#0274e6" x="3" y="15.5" width="3" height="1"/><path fill="#0274e6" d="M7,14v5h5L22,9,17,4Zm4.59,4H8.85L8,17.15V14.41l.07-.06,3.58,3.58Zm9-9-8.23,8.23-1.8-1.8L18.79,7.2ZM9.86,14.72,8.77,13.64,17,5.41,18.08,6.5Z"/></svg>