<svg xmlns="http://www.w3.org/2000/svg" viewBox="0 0 20 20"><g id="masked_images"><path fill="#0274e6" d="M6.5,4a1,1,0,1,1-1,1,1,1,0,0,1,1-1m0-1a2,2,0,1,0,2,2,2,2,0,0,0-2-2Z"/><path fill="#0274e6" d="M7,10.38,8.74,12l2.41,2.21.28.26h2L14.29,16H4V13.41l1.71-1.7L7,10.38M7,9,3,13v4l13,0-2-3.55H11.82L7,9Z"/><path fill="#0274e6" d="M13.08,8.05l2,2.43L16,11.64v1.11l-.58-1-.29-.5H12.61l-.81-.8L11.37,10l1-1.1.75-.86m0-1.55L10,10.06l2.2,2.18h2.35L17,16.5V11.28L13.11,6.5Z"/><polygon fill="#0274e6" points="2.5 20 0 20 0 17.5 1 17.5 1 19 2.5 19 2.5 20"/><path fill="#0274e6" d="M14.85,20H11.32V19h3.53ZM8.68,20H5.15V19H8.68Z"/><polygon fill="#0274e6" points="20 20 17.5 20 17.5 19 19 19 19 17.5 20 17.5 20 20"/><path fill="#0274e6" d="M20,14.85H19V11.32h1Zm0-6.17H19V5.15h1Z"/><polygon fill="#0274e6" points="20 2.5 19 2.5 19 1 17.5 1 17.5 0 20 0 20 2.5"/><path fill="#0274e6" d="M14.85,1H11.32V0h3.53ZM8.68,1H5.15V0H8.68Z"/><polygon fill="#0274e6" points="1 2.5 0 2.5 0 0 2.5 0 2.5 1 1 1 1 2.5"/><path fill="#0274e6" d="M1,14.85H0V11.32H1ZM1,8.68H0V5.15H1Z"/></g></svg>