<?xml version="1.0" encoding="UTF-8"?>
<svg id="Layer_2" data-name="Layer 2" xmlns="http://www.w3.org/2000/svg" viewBox="0 0 25 25">
  <defs>
    <style>
      .cls-1 {
        fill: #0274e6;
      }
    </style>
  </defs>
  <g id="Layer_1-2" data-name="Layer 1">
    <g id="Navigation_menu_widget">
      <path class="cls-1" d="M14,22H4.5V6h3.83l.27-.2,2-1.5,1.4-1.05,1.4,1.05,2,1.5,.27,.2h3.83V14h1V6h3.5V0H0V6H3.5V23H14v-1ZM1,1H6V5H1V1Zm22,0V5h-5V1h5Zm-6,0V5h-1c-1.33-1-2.67-2-4-3-1.33,1-2.67,2-4,3h-1V1h10Z"/>
      <path class="cls-1" d="M10,10h8v-3H10v3Zm1-2h6v1h-6v-1Z"/>
      <path class="cls-1" d="M11,14v-1h6v1h1v-2H10v3h4.78c.55-.61,1.34-1,2.22-1h-6Z"/>
      <polygon class="cls-1" points="11 19 11 18 14 18 14 17 10 17 10 20 14 20 14 19 11 19"/>
      <path class="cls-1" d="M6,20h3v-3h-3v3Zm1-2h1v1h-1v-1Z"/>
      <path class="cls-1" d="M6,15h3v-3h-3v3Zm1-2h1v1h-1v-1Z"/>
      <path class="cls-1" d="M6,10h3v-3h-3v3Zm1-2h1v1h-1v-1Z"/>
      <path class="cls-1" d="M23,15h-6c-1.1,0-2,.9-2,2v6c0,1.1,.9,2,2,2h6c1.1,0,2-.9,2-2v-6c0-1.1-.9-2-2-2Zm1,8c0,.55-.45,1-1,1h-6c-.55,0-1-.45-1-1v-6c0-.55,.45-1,1-1h6c.55,0,1,.45,1,1v6Z"/>
      <path class="cls-1" d="M21.72,18.99l.76-.76-.71-.71-.76,.76c-.16-.09-.33-.17-.51-.21v-1.07h-1v1.07c-.18,.05-.35,.12-.51,.21l-.76-.76-.71,.71,.76,.76c-.09,.16-.17,.33-.21,.51h-1.07v1h1.07c.05,.18,.12,.35,.21,.51l-.76,.76,.71,.71,.76-.76c.16,.09,.33,.17,.51,.21v1.07h1v-1.07c.18-.05,.35-.12,.51-.21l.76,.76,.71-.71-.76-.76c.09-.16,.17-.33,.21-.51h1.07v-1h-1.07c-.05-.18-.12-.35-.21-.51Zm-1.72,2.01c-.55,0-1-.45-1-1s.45-1,1-1,1,.45,1,1-.45,1-1,1Z"/>
    </g>
  </g>
</svg>