<?xml version="1.0" encoding="UTF-8"?>
<svg id="Layer_2" data-name="Layer 2" xmlns="http://www.w3.org/2000/svg" viewBox="0 0 25 25">
  <defs>
    <style>
      .cls-1 {
        fill: #0274e6;
      }
    </style>
  </defs>
  <g id="Layer_1-2" data-name="Layer 1">
    <g id="Meta_widget">
      <path class="cls-1" d="M3,23c-1.1,0-2-.9-2-2V7H0v14c0,1.66,1.34,3,3,3H14v-1H3Z"/>
      <path class="cls-1" d="M21,1c1.1,0,2,.9,2,2V14h1V3c0-1.66-1.34-3-3-3h-7V1h7Z"/>
      <polygon class="cls-1" points="7 21 14 21 14 20 8 20 8 19 14 19 14 18 7 18 7 21"/>
      <polygon class="cls-1" points="7 13 7 16 14 16 14 15 8 15 8 14 17 14 20.5 14 21.5 14 21.5 13 7 13"/>
      <path class="cls-1" d="M7,11h14.5v-3H7v3Zm1-2h12.5v1H8v-1Z"/>
      <path class="cls-1" d="M4,8c-.83,0-1.5,.67-1.5,1.5s.67,1.5,1.5,1.5,1.5-.67,1.5-1.5-.67-1.5-1.5-1.5Zm0,2c-.28,0-.5-.22-.5-.5s.22-.5,.5-.5,.5,.22,.5,.5-.22,.5-.5,.5Z"/>
      <path class="cls-1" d="M4,13c-.83,0-1.5,.67-1.5,1.5s.67,1.5,1.5,1.5,1.5-.67,1.5-1.5-.67-1.5-1.5-1.5Zm0,2c-.28,0-.5-.22-.5-.5s.22-.5,.5-.5,.5,.22,.5,.5-.22,.5-.5,.5Z"/>
      <path class="cls-1" d="M4,18c-.83,0-1.5,.67-1.5,1.5s.67,1.5,1.5,1.5,1.5-.67,1.5-1.5-.67-1.5-1.5-1.5Zm0,2c-.28,0-.5-.22-.5-.5s.22-.5,.5-.5,.5,.22,.5,.5-.22,.5-.5,.5Z"/>
      <path class="cls-1" d="M23,15h-6c-1.1,0-2,.9-2,2v6c0,1.1,.9,2,2,2h6c1.1,0,2-.9,2-2v-6c0-1.1-.9-2-2-2Zm1,6v2c0,.55-.45,1-1,1h-6c-.55,0-1-.45-1-1v-6c0-.55,.45-1,1-1h6c.55,0,1,.45,1,1v4Z"/>
      <path class="cls-1" d="M21.01,21.72l.76,.76,.71-.71-.76-.76c.09-.16,.17-.33,.21-.51h1.07v-1h-1.07c-.05-.18-.12-.35-.21-.51l.76-.76-.71-.71-.76,.76c-.16-.09-.33-.17-.51-.21v-1.07h-1v1.07c-.18,.05-.35,.12-.51,.21l-.76-.76-.71,.71,.76,.76c-.09,.16-.17,.33-.21,.51h-1.07v1h1.07c.05,.18,.12,.35,.21,.51l-.76,.76,.71,.71,.76-.76c.16,.09,.33,.17,.51,.21v1.07h1v-1.07c.18-.05,.35-.12,.51-.21Zm-2.01-1.72c0-.55,.45-1,1-1s1,.45,1,1-.45,1-1,1-1-.45-1-1Z"/>
      <path class="cls-1" d="M8,1h2c1.1,0,2,.9,2,2s-.9,2-2,2h-3v1h3c1.66,0,3-1.34,3-3s-1.34-3-3-3h-3V1h1Z"/>
      <path class="cls-1" d="M3,6h3v-1H3c-1.1,0-2-.9-2-2S1.9,1,3,1h3V0H3C1.34,0,0,1.34,0,3s1.34,3,3,3Z"/>
      <rect class="cls-1" x="3.5" y="2.5" width="6" height="1"/>
      <polygon class="cls-1" points="21.5 3 14 3 14 4 20.5 4 20.5 5 14 5 14 6 21.5 6 21.5 3"/>
    </g>
  </g>
</svg>