<svg xmlns="http://www.w3.org/2000/svg" viewBox="0 0 24.5 26"><g id="animated_heading"><path fill="#0274e6" d="M2.25,17V4l13,0,2-1h-16V19Z"/><path fill="#0274e6" d="M21.25,11V22h-12l-2,1h15V9Z"/><path fill="#0274e6" d="M20.75,2.69A5.29,5.29,0,0,0,22.39,4.5,5.27,5.27,0,0,0,20.9,6.05l-.15.26A5.13,5.13,0,0,0,19.1,4.5a5.43,5.43,0,0,0,1.06-.94,5.78,5.78,0,0,0,.59-.87m0-2.69a8,8,0,0,1-1.36,2.91A4.61,4.61,0,0,1,18.06,4c-.32.18-.66.35-1.06.53,2.26,1,2.92,1.79,3.75,4.5a10,10,0,0,1,1-2.42A5.4,5.4,0,0,1,24.5,4.5c-2.26-1-2.92-1.79-3.75-4.5Z"/><path fill="#0274e6" d="M3.75,19.68A5.16,5.16,0,0,0,5.4,21.5a5.43,5.43,0,0,0-1.06.94,5.69,5.69,0,0,0-.59.86,5.69,5.69,0,0,0-.59-.86c-.05-.05-.1-.11-.18-.18a5.47,5.47,0,0,0-.88-.76A5.47,5.47,0,0,0,3,20.74a5.35,5.35,0,0,0,.77-1.06m0-2.68c-.17.55-.33,1-.5,1.41a5.25,5.25,0,0,1-1,1.65A6.43,6.43,0,0,1,0,21.5a6.43,6.43,0,0,1,2.25,1.44l.14.15A8,8,0,0,1,3.75,26a8,8,0,0,1,1.36-2.91A4.61,4.61,0,0,1,6.44,22c.32-.18.66-.35,1.06-.53-2.26-1-2.92-1.79-3.75-4.5Z"/><polygon fill="#0274e6" points="15.5 7.75 13.73 7.75 13.48 7.75 13.48 8 13.48 11.84 10.02 11.84 10.02 8 10.02 7.75 9.77 7.75 8 7.75 7.75 7.75 7.75 8 7.75 18 7.75 18.25 8 18.25 9.77 18.25 10.02 18.25 10.02 18 10.02 14.16 13.48 14.16 13.48 18 13.48 18.25 13.73 18.25 15.5 18.25 15.75 18.25 15.75 18 15.75 8 15.75 7.75 15.5 7.75"/></g></svg>