<?xml version="1.0" encoding="UTF-8"?>
<svg id="Layer_2" data-name="Layer 2" xmlns="http://www.w3.org/2000/svg" viewBox="0 0 25 25">
  <defs>
    <style>
      .cls-1 {
        fill: #0274e6;
      }
    </style>
  </defs>
  <g id="Layer_1-2" data-name="Layer 1">
    <g id="Pages_widget">
      <path class="cls-1" d="M1,22V3H9.5v2.5h-3.5v3H15v5.5h1v-6L10,2h-1V1h8.5V6.5h5.5v7.5h1V6L18,0H8V2H0V23H14v-1H1ZM10.5,3.91l3.59,3.59h-3.59V3.91Zm-3.5,3.59v-1h2.5v1h-2.5ZM18.5,1.91l3.59,3.59h-3.59V1.91Z"/>
      <path class="cls-1" d="M23,15h-6c-1.1,0-2,.9-2,2v6c0,1.1,.9,2,2,2h6c1.1,0,2-.9,2-2v-6c0-1.1-.9-2-2-2Zm1,8c0,.55-.45,1-1,1h-6c-.55,0-1-.45-1-1v-6c0-.55,.45-1,1-1h6c.55,0,1,.45,1,1v6Z"/>
      <path class="cls-1" d="M21.72,18.99l.76-.76-.71-.71-.76,.76c-.16-.09-.33-.17-.51-.21v-1.07h-1v1.07c-.18,.05-.35,.12-.51,.21l-.76-.76-.71,.71,.76,.76c-.09,.16-.17,.33-.21,.51h-1.07v1h1.07c.05,.18,.12,.35,.21,.51l-.76,.76,.71,.71,.76-.76c.16,.09,.33,.17,.51,.21v1.07h1v-1.07c.18-.05,.35-.12,.51-.21l.76,.76,.71-.71-.76-.76c.09-.16,.17-.33,.21-.51h1.07v-1h-1.07c-.05-.18-.12-.35-.21-.51Zm-1.72,2.01c-.55,0-1-.45-1-1s.45-1,1-1,1,.45,1,1-.45,1-1,1Z"/>
      <path class="cls-1" d="M3.5,5.5c-.83,0-1.5,.67-1.5,1.5s.67,1.5,1.5,1.5,1.5-.67,1.5-1.5-.67-1.5-1.5-1.5Zm0,2c-.28,0-.5-.22-.5-.5s.22-.5,.5-.5,.5,.22,.5,.5-.22,.5-.5,.5Z"/>
      <path class="cls-1" d="M3.5,11c-.83,0-1.5,.67-1.5,1.5s.67,1.5,1.5,1.5,1.5-.67,1.5-1.5-.67-1.5-1.5-1.5Zm0,2c-.28,0-.5-.22-.5-.5s.22-.5,.5-.5,.5,.22,.5,.5-.22,.5-.5,.5Z"/>
      <path class="cls-1" d="M3.5,16.5c-.83,0-1.5,.67-1.5,1.5s.67,1.5,1.5,1.5,1.5-.67,1.5-1.5-.67-1.5-1.5-1.5Zm0,2c-.28,0-.5-.22-.5-.5s.22-.5,.5-.5,.5,.22,.5,.5-.22,.5-.5,.5Z"/>
      <path class="cls-1" d="M6,14H14v-3H6v3Zm1-2h6v1H7v-1Z"/>
      <path class="cls-1" d="M6,19.5H14v-3H6v3Zm1-2h6v1H7v-1Z"/>
    </g>
  </g>
</svg>