<?xml version="1.0" encoding="UTF-8"?>
<svg id="Layer_2" data-name="Layer 2" xmlns="http://www.w3.org/2000/svg" viewBox="0 0 25 25">
  <defs>
    <style>
      .cls-1 {
        fill: #0274e6;
      }
    </style>
  </defs>
  <g id="Layer_1-2" data-name="Layer 1">
    <g id="Recent_posts_widget" data-name="Recent posts_widget">
      <path class="cls-1" d="M0,23H11V12H0v11ZM1,13H10v9H1V13Z"/>
      <path class="cls-1" d="M0,11H11V0H0V11ZM1,1H10V10H1V1Z"/>
      <path class="cls-1" d="M24,1H12V5h12V1Zm-1,3H13V2h10v2Z"/>
      <path class="cls-1" d="M18,6h-6v4h6V6Zm-1,3h-4v-2h4v2Z"/>
      <polygon class="cls-1" points="14 16 13 16 13 14 17 14 23 14 24 14 24 13 12 13 12 17 14 17 14 16"/>
      <polygon class="cls-1" points="14 21 13 21 13 19 14 19 14 18 12 18 12 22 14 22 14 21"/>
      <path class="cls-1" d="M25,17c0-1.1-.9-2-2-2h-6c-.41,0-.8,.13-1.12,.34-.21,.14-.4,.33-.54,.54-.22,.32-.34,.7-.34,1.12v6c0,1.1,.9,2,2,2h6c.41,0,.8-.13,1.12-.34,.21-.14,.4-.33,.54-.54,.22-.32,.34-.7,.34-1.12v-6Zm-1,6c0,.55-.45,1-1,1h-6c-.55,0-1-.45-1-1v-6c0-.55,.45-1,1-1h6c.55,0,1,.45,1,1v6Z"/>
      <path class="cls-1" d="M19.5,18.07c-.18,.05-.35,.12-.51,.21l-.76-.76-.71,.71,.76,.76c-.09,.16-.17,.33-.21,.51h-1.07v1h1.07c.05,.18,.12,.35,.21,.51l-.76,.76,.71,.71,.76-.76c.16,.09,.33,.17,.51,.21v1.07h1v-1.07c.18-.05,.35-.12,.51-.21l.76,.76,.71-.71-.76-.76c.09-.16,.17-.33,.21-.51h1.07v-1h-1.07c-.05-.18-.12-.35-.21-.51l.76-.76-.71-.71-.76,.76c-.16-.09-.33-.17-.51-.21v-1.07h-1v1.07Zm-.5,1.93c0-.55,.45-1,1-1s1,.45,1,1-.45,1-1,1-1-.45-1-1Z"/>
    </g>
  </g>
</svg>