<svg xmlns="http://www.w3.org/2000/svg" viewBox="0 0 21.5 21.5"><g id="prices"><path fill="#0274e6" d="M13.75,12.63a2.82,2.82,0,0,0-1.43-2.42,3.42,3.42,0,0,0-1.11-.4,4,4,0,0,0-.5,0,1.37,1.37,0,0,1-.5-2.68,1.64,1.64,0,0,1,.5-.08,1.43,1.43,0,0,1,.5.09,1.38,1.38,0,0,1,.95,1.16h1.07a2.44,2.44,0,0,0-2-2.2V4.75h-1V6h0a2.42,2.42,0,0,0-2,2.34,2.29,2.29,0,0,0,.92,1.82,2.61,2.61,0,0,0,1.12.51,2.07,2.07,0,0,0,.5.06,2.07,2.07,0,0,1,.5.06,1.83,1.83,0,0,1,0,3.59,2.07,2.07,0,0,1-.5.06,2,2,0,0,1-.5-.07,1.93,1.93,0,0,1-1.35-1.13H7.75a3,3,0,0,0,2.46,2.17h0v1.29h1V15.44A2.91,2.91,0,0,0,13.75,12.63Z"/><path fill="#0274e6" d="M10.75,3.25a7.5,7.5,0,1,1-7.5,7.5,7.5,7.5,0,0,1,7.5-7.5m0-1a8.5,8.5,0,1,0,8.5,8.5,8.51,8.51,0,0,0-8.5-8.5Z"/><path fill="#0274e6" d="M10.75,1a9.75,9.75,0,0,1,9.73,9.73h1a10.75,10.75,0,1,0-3.15,7.6l-.73-.73A9.72,9.72,0,1,1,10.75,1Z"/></g></svg>