<svg xmlns="http://www.w3.org/2000/svg" viewBox="0 0 20 21"><rect fill="#0274e6" x="3" y="3" width="14" height="1"/><rect fill="#0274e6" x="3" y="5.5" width="12" height="1"/><rect fill="#0274e6" x="3" y="8" width="7" height="1"/><path fill="#0274e6" d="M0,0V12H13l5,3V12h2V0ZM19,11H17v2.23l-1-.59-2.5-1.5L13.28,11H1V1H19Z"/><path fill="#0274e6" d="M19,16H17.5l-5-3H0v5H2v3l5-3H20V13H19ZM4,16.5a1,1,0,1,1,1-1A1,1,0,0,1,4,16.5Zm4,0a1,1,0,1,1,1-1A1,1,0,0,1,8,16.5Zm4,0a1,1,0,1,1,1-1A1,1,0,0,1,12,16.5Z"/></svg>