<svg width="20px" enable-background="new 0 0 512 512" viewBox="0 0 512 512" xmlns="http://www.w3.org/2000/svg"><g fill="#fff"><circle cx="90.5" cy="454.8" r="57.2"/><circle cx="256" cy="454.8" r="57.2"/><circle cx="421.5" cy="454.8" r="57.2"/><path d="m356.5 94.5c-3.1 0-6.1.2-9.1.4-12.4-54.3-61-94.9-119.1-94.9-15.3 0-29.9 2.8-43.4 8 0 15.3.1 32.9.2 40.4 15.6.1 45.8.2 59.1.2v57.8c-19.9 0-39.2 0-58.8 0v97.7h60.5c-1.7 4.3-4.3 10.7-5.4 13.2-11 26.5-38.3 41.3-66.6 36.2-26.9-4.9-46.9-27.8-48.4-55.9-.4-8.2-.2-16.5-.2-24.7 0-12.6 0-54 0-66.9-7.1 0-13.9 0-20.7 0-41.8 19.4-70.9 61.7-70.9 110.8 0 67.5 54.7 122.2 122.2 122.2h202c66.9-.7 120.8-55.1 120.8-122.2 0-67.5-54.7-122.3-122.2-122.3z"/></g></svg>