<?xml version="1.0" encoding="utf-8"?>
<svg version="1.1" id="Layer_1" xmlns="http://www.w3.org/2000/svg" xmlns:xlink="http://www.w3.org/1999/xlink" x="0px" y="0px"
	 viewBox="0 0 48 48" style="enable-background:new 0 0 48 48;" xml:space="preserve">
<style type="text/css">
	.st0{fill:url(#SVGID_1_);}
	.st1{fill:#FFFFFF;}
	.st2{fill:#F5E663;}
</style>
<linearGradient id="SVGID_1_" gradientUnits="userSpaceOnUse" x1="1.5792" y1="1.5792" x2="47.4698" y2="47.4698">
	<stop  offset="0" style="stop-color:#0900C3"/>
	<stop  offset="0.75" style="stop-color:#0075F6"/>
	<stop  offset="1" style="stop-color:#8EABFF"/>
</linearGradient>
<path class="st0" d="M28,48h-8C9,48,0,39,0,28v-8C0,9,9,0,20,0h8c11,0,20,9,20,20v8C48,39,39,48,28,48z"/>
<path class="st1" d="M37,28.7C37,34.9,30.8,40,23.2,40c-3.1,0-6.2-0.9-8.6-2.5c-0.3-0.2-0.4-0.4-0.4-0.7c0-0.3,0.1-0.6,0.3-0.8
	l1.5-1.5c0.3-0.3,0.9-0.4,1.3-0.1c1.7,1.1,3.8,1.6,6,1.6c5.3,0,9.6-3.3,9.6-7.3c0-4-4.3-7.3-9.6-7.3c0,0,0,0,0,0
	c-0.3,0-0.6-0.1-0.8-0.3c-0.2-0.2-0.3-0.4-0.3-0.7l0-2c0-0.6,0.5-1,1-1h0C30.8,17.3,37,22.4,37,28.7z M24.8,30.7L24.8,30.7
	c0.6,0,1-0.5,1-1l0-2c0-0.3-0.1-0.5-0.3-0.7c-0.2-0.2-0.5-0.3-0.8-0.3c0,0,0,0,0,0c-5.3,0-9.6-3.3-9.6-7.3c0-4,4.3-7.3,9.6-7.3
	c2.2,0,4.3,0.6,6,1.6c0.4,0.2,0.9,0.2,1.3-0.1l1.5-1.5c0.2-0.2,0.3-0.5,0.3-0.8c0-0.3-0.2-0.6-0.4-0.7C31,8.9,27.9,8,24.8,8
	C17.2,8,11,13.1,11,19.3C11,25.6,17.2,30.7,24.8,30.7z"/>
</svg>
